<?xml version="1.0" encoding="utf-8"?>
<!-- Generator: Adobe Illustrator 16.0.3, SVG Export Plug-In . SVG Version: 6.00 Build 0)  -->
<!DOCTYPE svg PUBLIC "-//W3C//DTD SVG 1.1//EN" "http://www.w3.org/Graphics/SVG/1.1/DTD/svg11.dtd">
<svg version="1.1" id="Layer_1" xmlns="http://www.w3.org/2000/svg" xmlns:xlink="http://www.w3.org/1999/xlink" x="0px" y="0px"
	 width="283.46px" height="283.46px" viewBox="0 0 283.46 283.46" enable-background="new 0 0 283.46 283.46" xml:space="preserve">
<path stroke="#7D88F6" stroke-width="22.6772" stroke-miterlimit="10" d="M269.291,255.427c0,7.657-6.207,13.864-13.864,13.864
	H28.038c-7.657,0-13.865-6.207-13.865-13.864V28.038c0-7.657,6.208-13.865,13.865-13.865h227.389
	c7.657,0,13.864,6.208,13.864,13.865V255.427z"/>
<g id="g2542" transform="matrix(1.1036964,0,0,1.1036964,-24.108519,-9.3654261)">
	<g id="g5011" transform="translate(-492.15907,-339.97333)">
		<path id="path5000" fill="#B89B5C" stroke="#000000" stroke-width="1.5" stroke-linecap="round" d="M716.108,404.843
			c0,0,1.931,4.32,4.164,14.741c2.232,10.42,2.836,20.543,2.87,20.652c2.661-0.13,4.217-0.269,6.903-0.85
			c7.94-1.718-0.384-29.262-0.621-29.49L716.108,404.843z"/>
		<path id="path4703" fill="#7DF6A7" stroke="#000000" stroke-width="1.5" stroke-linecap="round" d="M727.116,431.274l0.078,0.079
			c3.732-0.571,3.074-2.815,2.628-4.791l-17.47-18.839c0.423,2.304,0.123-0.119,0.123-0.119c0.204,2.52,1.167,3.114-3.193,4.127
			l0.085,0.125l17.808,19.42"/>
		<path id="path4584" fill="#B89B5C" stroke="#000000" stroke-width="1.5" stroke-linecap="round" d="M647.115,470.444
			c0,0-4.932-8.816-6.699-18.36c-1.767-9.542-0.37-19.096-0.388-19.322c-0.356-0.107-6.034,2.148-8.305,3.527
			c-7.573,4.601-0.749,27.6-0.856,27.758l16.156,6.576"/>
		<path id="path4715" fill="#D67DF6" stroke="#000000" stroke-width="1.5" stroke-linecap="round" d="M703.84,436.207l-10.96-3.841
			l0.063,0.009l-4.697-4.752l-0.002-0.041c-0.036-4.392,2.414-2.593,4.281-2.894c0,0-1.867,0.301,0.042,0.002L703.84,436.207z"/>
		<path id="path4707" fill="#F67DA2" stroke="#000000" stroke-width="1.5" stroke-linecap="round" stroke-linejoin="round" d="
			M717.696,439.504l6.991,0.589l-22.059-22.931l0.042,0.055l-3.132,3.132l0.013-0.014L717.696,439.504z"/>
		<path id="path4948" fill="#B89B5C" stroke="#000000" stroke-width="1.5" stroke-linecap="round" d="M687.194,429.969
			c0,0-4.933-8.818-6.7-18.361c-1.767-9.543-0.37-19.097-0.388-19.322c-0.356-0.108-6.035,2.147-8.305,3.526
			c-7.573,4.6-0.75,27.6-0.857,27.76l16.157,6.574"/>
		<path id="path5002" fill="#F6D07D" stroke="#000000" stroke-width="1.5" stroke-linecap="round" d="M716.807,385.914
			c-7.49-4.835-26.752-7.964-33.803-4.584c-7.662,4.505-12.058,9.476-14.591,15.382c-1.044,18.889,0.945,18.614,2.536,26.803
			c0.102-0.102-7.591-22.721,0.852-27.702c11.217-6.616,24.969-5.596,39.147,1.143L716.807,385.914z"/>
		<path id="path2898" fill="#F6D07D" stroke="#000000" stroke-width="1.5" stroke-linecap="round" d="M729.495,409.958
			c0,0,8.411,27.379,0.55,29.428c-22.986,5.994-67.073-25.958-87.12-17.58c-7.662,4.505-12.059,9.477-14.59,15.381
			c-1.044,18.89,0.945,18.616,2.535,26.805c0.103-0.103-7.577-22.7,0.852-27.703c27.711-16.447,47.795,14.564,90.798,15.472
			c3.912-0.892,8.136-4.581,12.204-11.536C737.741,437.347,731.739,422.24,729.495,409.958z"/>
		<path id="path2902" fill="#D67DF6" stroke="#000000" stroke-width="1.5" stroke-linecap="round" d="M709.282,411.729
			c4.443-0.889,3.301-1.511,3.097-4.03c0,0,0.204,2.519-0.027,0.023l-12.575-14.739c0.088-0.138-1.665-0.486-3.891-0.893
			c-2.225-0.406-4.921-0.872-4.97-0.639L709.282,411.729z"/>
		<path id="path2910" fill="#7D88F6" stroke="#000000" stroke-width="1.5" stroke-linecap="round" d="M702.627,417.163l-3.091,3.187
			l-25.068-25.766l4.813-1.902L702.627,417.163z"/>
		<path id="path2914" fill="#7DF6A7" stroke="#000000" stroke-width="1.5" stroke-linecap="round" d="M688.326,427.499
			c-0.119-4.269,2.746-2.093,4.364-2.645c0,0-1.617,0.551,0.042,0.002l-18.708-18.808c-1.806,0.389-0.025,0.005-0.025,0.005
			c-1.781,0.384-3.361,1.377-3.069,4.246l0.042,0.052L688.326,427.499z"/>
	</g>
	<g id="g4954" transform="translate(-507.1312,-325.30702)">
		<path id="path4956" fill="#B89B5C" stroke="#000000" stroke-width="1.5" stroke-linecap="round" d="M691.332,425.291
			c0,0,3.931,10.651,6.164,21.071c2.233,10.421,2.837,20.544,2.872,20.653c2.661-0.13,4.217-0.269,6.902-0.85
			c7.941-1.717-1.715-34.926-1.619-34.822L691.332,425.291z"/>
		<path id="path4958" fill="#F6D07D" stroke="#000000" stroke-width="1.5" stroke-linecap="round" d="M705.555,431.239
			c0,0,9.575,32.876,1.715,34.926c-22.985,5.995-67.072-25.958-87.12-17.58c-7.661,4.505-12.057,9.478-14.589,15.382
			c-1.044,18.889,0.944,18.615,2.534,26.804c0.103-0.103-7.576-22.7,0.853-27.702c27.711-16.447,47.794,14.563,90.797,15.472
			c3.913-0.892,8.137-4.582,12.203-11.536C714.967,464.127,707.798,443.521,705.555,431.239z"/>
		<path id="path4960" fill="#D67DF6" stroke="#000000" stroke-width="1.5" stroke-linecap="round" d="M686.508,438.508
			c4.443-0.888,3.3-1.511,3.097-4.03c0,0,0.203,2.519-0.028,0.023l-12.575-14.738c0.089-0.139-1.665-0.487-3.89-0.893
			s-4.921-0.873-4.969-0.64L686.508,438.508z"/>
		<path id="path4962" fill="#7DF6A7" stroke="#000000" stroke-width="1.5" stroke-linecap="round" d="M665.551,454.279
			c-0.118-4.27,2.747-2.094,4.365-2.646c0,0-1.617,0.551,0.042,0.003l-18.708-18.808c-1.807,0.388-0.025,0.005-0.025,0.005
			c-1.782,0.383-3.361,1.375-3.07,4.246l0.042,0.051L665.551,454.279z"/>
		<path id="path4964" fill="#7D88F6" stroke="#000000" stroke-width="1.5" stroke-linecap="round" d="M679.853,443.943l-3.09,3.187
			l-25.068-25.766l4.812-1.903L679.853,443.943z"/>
		<path id="path4966" fill="#7DF6A7" stroke="#000000" stroke-width="1.5" stroke-linecap="round" d="M704.342,458.054l0.078,0.078
			c3.732-0.57,3.073-2.814,2.627-4.789l-17.471-18.841c0.423,2.305,0.124-0.119,0.124-0.119c0.203,2.52,1.167,3.114-3.192,4.127
			l0.083,0.126l17.81,19.42"/>
		<path id="path4968" fill="#7D88F6" stroke="#000000" stroke-width="1.5" stroke-linecap="round" d="M699.072,435.479
			c2.169-0.13,3.556-2.263,3.292-4.276c0,0,0.265,2.013-0.109-0.215l-1.173-1.511l0.035-0.014l-11.65-4.883l-0.033,0.045
			L699.072,435.479z"/>
		<path id="path4970" fill="#B89B5C" stroke="#000000" stroke-width="1.5" stroke-linecap="round" d="M624.34,497.225
			c0,0-4.931-8.818-6.698-18.361c-1.767-9.544-0.37-19.097-0.389-19.323c-0.356-0.108-6.035,2.147-8.305,3.527
			c-7.573,4.599-0.75,27.599-0.857,27.758l16.156,6.576"/>
		<path id="path4972" fill="#D67DF6" stroke="#000000" stroke-width="1.5" stroke-linecap="round" d="M681.065,462.987
			l-10.959-3.842l0.062,0.009l-4.698-4.751l-0.002-0.041c-0.035-4.392,2.415-2.594,4.282-2.895c0,0-1.868,0.301,0.041,0.002
			L681.065,462.987z"/>
		<path id="path4974" fill="#F67DA2" stroke="#000000" stroke-width="1.5" stroke-linecap="round" stroke-linejoin="round" d="
			M694.921,466.283l6.992,0.588l-22.06-22.929l0.042,0.055l-3.132,3.132l0.013-0.014L694.921,466.283z"/>
	</g>
	<path id="path4781" fill="#B89B5C" stroke="#000000" stroke-width="1.5" stroke-linecap="round" d="M144.472,140.105
		c0,0,3.931,10.65,6.163,21.071c2.233,10.42,2.838,20.544,2.872,20.653c2.66-0.131,4.217-0.269,6.902-0.849
		c7.941-1.718-1.715-34.927-1.619-34.823L144.472,140.105z"/>
	<path id="path4783" fill="#F6D07D" stroke="#000000" stroke-width="1.5" stroke-linecap="round" d="M158.694,146.052
		c0,0,9.575,32.876,1.715,34.927c-22.985,5.994-67.072-25.959-87.119-17.581c-7.662,4.505-12.058,9.477-14.59,15.382
		c-1.045,18.889-1.854,9.598-0.264,17.788c0.103-0.103-4.778-13.683,3.651-18.687c27.712-16.445,47.794,14.565,90.797,15.472
		c3.914-0.891,8.137-4.581,12.204-11.534C168.106,178.939,160.936,158.335,158.694,146.052z"/>
	<path id="path4785" fill="#D67DF6" stroke="#000000" stroke-width="1.5" stroke-linecap="round" d="M139.646,153.322
		c4.444-0.888,3.301-1.511,3.098-4.031c0,0,0.203,2.52-0.028,0.025l-12.575-14.739c0.088-0.14-1.665-0.487-3.89-0.893
		c-2.225-0.406-4.922-0.873-4.97-0.64L139.646,153.322z"/>
	<path id="path4787" fill="#7DF6A7" stroke="#000000" stroke-width="1.5" stroke-linecap="round" d="M118.69,169.093
		c-0.118-4.27,2.747-2.095,4.364-2.646c0,0-1.617,0.55,0.042,0.002l-18.708-18.808c-1.806,0.388-0.025,0.005-0.025,0.005
		c-1.782,0.383-3.361,1.375-3.07,4.245l0.042,0.051L118.69,169.093z"/>
	<path id="path4789" fill="#7D88F6" stroke="#000000" stroke-width="1.5" stroke-linecap="round" d="M132.992,158.756l-3.091,3.187
		l-25.067-25.767l4.812-1.902L132.992,158.756z"/>
	<path id="path4791" fill="#7DF6A7" stroke="#000000" stroke-width="1.5" stroke-linecap="round" d="M157.481,172.867l0.078,0.078
		c3.731-0.57,3.072-2.814,2.628-4.79l-17.471-18.839c0.422,2.304,0.123-0.12,0.123-0.12c0.204,2.52,1.167,3.113-3.193,4.127
		l0.085,0.125l17.81,19.42"/>
	<path id="path4793" fill="#7D88F6" stroke="#000000" stroke-width="1.5" stroke-linecap="round" d="M152.211,150.292
		c2.168-0.13,3.555-2.263,3.291-4.276c0,0,0.264,2.013-0.109-0.214l-1.174-1.512l0.035-0.015l-11.651-4.882l-0.032,0.046
		L152.211,150.292z"/>
	<path id="path4797" fill="#D67DF6" stroke="#000000" stroke-width="1.5" stroke-linecap="round" d="M134.204,177.801l-10.961-3.842
		l0.063,0.009l-4.699-4.752l-0.002-0.039c-0.036-4.394,2.415-2.596,4.282-2.896c0,0-1.867,0.3,0.042,0.002L134.204,177.801z"/>
	<path id="path4799" fill="#F67DA2" stroke="#000000" stroke-width="1.5" stroke-linecap="round" stroke-linejoin="round" d="
		M148.06,181.096l6.991,0.59l-22.059-22.931l0.042,0.054l-3.133,3.133l0.014-0.013L148.06,181.096z"/>
	<path id="path4803" fill="#B89B5C" stroke="#000000" stroke-width="1.5" stroke-linecap="round" d="M105.111,180.562
		c0,0,3.931,10.65,6.164,21.073c2.233,10.42,2.836,20.542,2.871,20.651c2.662-0.13,4.219-0.269,6.904-0.849
		c7.94-1.718-1.716-34.925-1.621-34.822L105.111,180.562z"/>
	<path id="path4807" fill="#D67DF6" stroke="#000000" stroke-width="1.5" stroke-linecap="round" d="M100.285,193.78
		c4.445-0.889,3.301-1.512,3.098-4.032c0,0,0.203,2.52-0.027,0.025L90.78,175.033c0.088-0.139-1.665-0.487-3.891-0.892
		c-2.224-0.408-4.921-0.873-4.969-0.641L100.285,193.78z"/>
	<path id="path4813" fill="#7DF6A7" stroke="#000000" stroke-width="1.5" stroke-linecap="round" d="M118.121,213.325l0.078,0.078
		c3.731-0.571,3.073-2.815,2.628-4.79l-17.471-18.84c0.422,2.304,0.123-0.12,0.123-0.12c0.203,2.52,1.167,3.115-3.194,4.128
		l0.085,0.125l17.809,19.42"/>
	<path id="path4815" fill="#7D88F6" stroke="#000000" stroke-width="1.5" stroke-linecap="round" d="M112.85,190.75
		c2.167-0.13,3.555-2.263,3.291-4.277c0,0,0.264,2.014-0.109-0.214l-1.173-1.511l0.034-0.015l-11.649-4.882l-0.032,0.045
		L112.85,190.75z"/>
	<path id="path4821" fill="#F67DA2" stroke="#000000" stroke-width="1.5" stroke-linecap="round" stroke-linejoin="round" d="
		M108.698,221.554l6.992,0.588l-22.06-22.929l0.042,0.055l-3.132,3.132l0.014-0.014L108.698,221.554z"/>
	<path id="path4909" fill="#B89B5C" stroke="#000000" stroke-width="1.5" stroke-linecap="round" d="M71.999,198.085
		c-1.767-9.543-1.589-23.504-1.607-23.73c-0.356-0.108-6.034,2.147-8.305,3.525c-7.573,4.601-3.457,18.399-3.563,18.558
		L71.999,198.085z"/>
	<path id="path4911" fill="#F6D07D" stroke="#000000" stroke-width="1.5" stroke-linecap="round" d="M119.333,186.511
		c0,0,9.408,32.317,1.716,34.925c-5.775,1.957-23.026-3.168-31.709-5.226l-0.391,13.943c9.523,2.675,18.259,3.992,24.573,3.658
		c3.914-0.892,8.137-4.582,12.205-11.536C128.745,219.397,121.577,198.793,119.333,186.511z"/>
	<path id="path4811" fill="#7D88F6" stroke="#000000" stroke-width="1.5" stroke-linecap="round" d="M93.63,199.214l-3.09,3.187
		l-25.068-25.766l4.812-1.902L93.63,199.214z"/>
</g>
<g>
	<g>
		
			<line id="_38865536" fill="none" stroke="#F6D07D" stroke-width="3" stroke-linecap="round" stroke-linejoin="round" x1="31.544" y1="113.117" x2="116.584" y2="113.117"/>
		<path id="_38045336" fill="none" stroke="#F6D07D" stroke-width="3" stroke-linecap="round" stroke-linejoin="round" d="
			M74.064,113.117V32.308 M40.049,113.117h0.138l0.068-0.004h0.134l0.067-0.001l0.071-0.002h0.135l0.069-0.002l0.068-0.002h0.065
			l0.069-0.002h0.137l0.068-0.003l0.065-0.002h0.069l0.067-0.002l0.072-0.002l0.135-0.004h0.07l0.068-0.003h0.065l0.069-0.004h0.067
			l0.071-0.002l0.068-0.002l0.066-0.002l0.069-0.002l0.134-0.005l0.068-0.001l0.066-0.002l0.139-0.004l0.065-0.003l0.069-0.002
			l0.067-0.004l0.14-0.005l0.065-0.002l0.071-0.004l0.068-0.002l0.064-0.002l0.069-0.003l0.067-0.003l0.071-0.005"/>
		<polyline id="_37737360" fill="none" stroke="#F6D07D" stroke-width="3" stroke-linecap="round" stroke-linejoin="round" points="
			106.306,113.084 106.375,113.089 106.442,113.089 106.513,113.091 106.581,113.091 106.716,113.095 106.783,113.097 
			106.855,113.099 106.923,113.099 106.99,113.101 107.06,113.104 107.193,113.104 107.262,113.106 107.329,113.106 107.4,113.108 
			107.468,113.11 107.604,113.11 107.737,113.114 107.872,113.114 107.943,113.117 108.081,113.117 		"/>
		<path id="_39870176" fill="none" stroke="#F6D07D" stroke-width="3" d="M40.049,113.117v4.231 M57.057,113.117v4.231
			 M91.072,113.117v4.231 M108.081,113.117v4.231"/>
	</g>
	<path id="_39579056" fill="none" stroke="#D67DF6" stroke-width="3" stroke-linecap="round" stroke-linejoin="round" d="
		M43.386,113.031l0.067-0.002l0.066-0.004l0.071-0.004l0.066-0.002l0.072-0.004l0.068-0.005l0.066-0.004l0.07-0.004L44.002,113
		l0.065-0.004l0.069-0.004l0.067-0.005l0.071-0.006l0.068-0.003l0.066-0.004l0.07-0.005l0.067-0.006l0.064-0.005l0.069-0.006
		l0.065-0.005l0.072-0.006l0.067-0.003l0.066-0.007l0.07-0.006l0.066-0.005l0.072-0.008l0.069-0.007l0.066-0.006l0.07-0.006
		l0.067-0.006l0.066-0.007l0.069-0.008l0.067-0.007l0.071-0.009l0.067-0.007l0.065-0.009l0.072-0.008l0.066-0.007l0.065-0.009
		l0.069-0.011l0.066-0.007l0.071-0.009l0.068-0.011l0.064-0.008l0.07-0.011l0.067-0.01l0.071-0.011l0.069-0.01l0.065-0.011
		l0.07-0.01l0.067-0.013l0.065-0.011l0.069-0.013l0.067-0.01l0.07-0.015l0.069-0.011l0.064-0.014l0.07-0.013l0.068-0.013l0.07-0.014
		l0.07-0.015l0.064-0.015l0.072-0.015l0.067-0.016l0.065-0.016l0.068-0.014l0.068-0.017l0.071-0.017l0.068-0.016l0.065-0.02
		l0.07-0.017l0.067-0.019l0.065-0.017l0.069-0.019l0.066-0.019l0.07-0.02l0.068-0.02l0.066-0.021l0.069-0.02l0.067-0.021
		l0.071-0.022l0.068-0.023l0.066-0.022l0.07-0.022l0.067-0.024l0.065-0.021l0.069-0.024l0.067-0.025l0.07-0.026l0.069-0.026
		l0.065-0.025l0.07-0.028l0.067-0.026l0.071-0.032l0.069-0.026l0.067-0.028l0.069-0.034l0.067-0.028l0.066-0.03l0.07-0.032
		l0.067-0.032l0.07-0.035l0.069-0.033l0.065-0.034l0.071-0.036l0.067-0.035l0.065-0.035l0.069-0.037l0.066-0.038l0.07-0.039
		l0.068-0.041l0.065-0.037l0.069-0.041l0.067-0.041l0.071-0.044l0.07-0.046l0.066-0.041l0.07-0.047l0.067-0.046l0.066-0.046
		l0.068-0.047l0.067-0.048l0.071-0.05l0.068-0.049l0.066-0.052l0.069-0.052l0.067-0.054l0.065-0.05l0.069-0.056l0.066-0.054
		l0.07-0.058l0.068-0.059l0.066-0.057l0.068-0.061l0.067-0.061l0.072-0.063l0.068-0.064l0.066-0.062l0.07-0.066l0.068-0.063
		l0.065-0.064l0.068-0.07l0.066-0.068l0.072-0.071l0.067-0.072l0.066-0.071l0.069-0.075l0.067-0.072l0.072-0.084l0.068-0.078
		L53.671,109l0.07-0.085l0.067-0.08l0.066-0.081l0.069-0.085l0.067-0.082l0.071-0.092l0.068-0.089l0.066-0.086l0.069-0.094
		l0.068-0.092l0.065-0.089l0.068-0.096l0.066-0.095l0.072-0.102l0.067-0.1l0.065-0.096l0.07-0.104l0.066-0.104l0.072-0.111
		l0.069-0.105l0.065-0.104l0.071-0.114l0.067-0.111l0.065-0.107l0.07-0.117l0.066-0.115l0.072-0.121l0.067-0.121l0.065-0.117
		l0.07-0.126l0.067-0.124l0.066-0.119l0.069-0.13l0.066-0.124l0.07-0.136l0.067-0.135l0.066-0.128l0.07-0.141l0.067-0.135
		l0.07-0.146l0.069-0.145l0.065-0.139l0.071-0.15l0.067-0.147l0.065-0.142l0.069-0.153l0.065-0.148l0.071-0.162l0.069-0.156
		l0.064-0.153l0.07-0.163l0.067-0.16l0.071-0.175l0.069-0.167l0.065-0.163l0.071-0.176l0.069-0.174l0.064-0.164l0.07-0.181
		l0.067-0.175l0.07-0.188l0.069-0.183l0.065-0.178l0.07-0.191l0.067-0.188l0.065-0.181l0.069-0.196l0.066-0.188l0.07-0.205
		l0.069-0.198l0.064-0.194l0.07-0.206l0.067-0.201l0.071-0.217l0.068-0.211l0.066-0.206l0.069-0.219l0.069-0.212l0.064-0.21
		l0.07-0.224l0.066-0.216l0.071-0.233l0.069-0.226l0.066-0.221l0.069-0.234l0.067-0.231l0.071-0.245l0.069-0.24l0.066-0.231
		l0.07-0.248l0.069-0.243l0.064-0.233l0.07-0.252l0.067-0.244l0.069-0.263l0.069-0.254l0.066-0.246l0.07-0.266l0.067-0.258
		l0.064-0.249l0.07-0.267l0.066-0.258l0.07-0.279l0.068-0.269l0.066-0.263l0.07-0.278l0.067-0.271l0.071-0.292l0.068-0.28
		l0.066-0.275l0.07-0.293l0.068-0.283l0.064-0.275l0.069-0.293l0.067-0.285l0.072-0.306l0.067-0.296l0.066-0.284l0.07-0.306
		l0.067-0.298l0.065-0.287l0.068-0.308l0.066-0.297l0.071-0.318l0.068-0.309l0.065-0.297l0.069-0.318l0.067-0.311l0.072-0.329
		l0.068-0.319l0.065-0.309l0.07-0.33l0.067-0.32l0.066-0.309l0.068-0.327l0.067-0.32l0.071-0.339l0.068-0.331l0.066-0.318
		l0.07-0.341l0.067-0.328l0.071-0.35l0.068-0.339l0.067-0.328l0.069-0.35l0.068-0.336l0.066-0.326l0.068-0.35l0.067-0.336
		l0.072-0.359l0.068-0.345l0.066-0.334l0.069-0.355l0.067-0.345l0.064-0.331l0.069-0.354l0.068-0.341l0.071-0.363l0.068-0.352
		l0.065-0.338l0.069-0.361l0.067-0.346l0.071-0.37l0.068-0.357l0.066-0.346l0.07-0.365l0.068-0.354l0.064-0.341l0.07-0.361
		l0.065-0.348l0.072-0.371l0.068-0.357l0.065-0.345l0.07-0.366l0.067-0.351l0.071-0.377l0.07-0.361l0.065-0.346L65.862,67
		l0.068-0.354l0.065-0.342l0.07-0.362l0.066-0.349l0.072-0.371l0.068-0.357l0.066-0.342l0.07-0.364l0.067-0.35l0.065-0.336
		l0.069-0.357l0.067-0.342l0.07-0.364l0.068-0.348l0.065-0.337l0.07-0.356l0.067-0.341l0.072-0.362l0.068-0.346l0.066-0.334
		l0.07-0.353l0.068-0.339l0.065-0.325l0.069-0.344l0.067-0.33l0.07-0.35l0.069-0.334l0.065-0.32l0.07-0.34l0.068-0.326l0.064-0.31
		l0.069-0.33l0.066-0.316l0.07-0.332l0.069-0.318l0.065-0.306l0.069-0.323l0.067-0.308l0.071-0.326l0.069-0.311l0.065-0.299
		l0.071-0.313l0.067-0.299l0.064-0.287l0.069-0.304l0.067-0.286l0.071-0.305l0.068-0.291l0.065-0.276l0.07-0.292l0.068-0.278
		l0.071-0.292l0.069-0.28l0.065-0.265l0.071-0.28l0.068-0.265l0.065-0.255l0.068-0.267l0.068-0.252l0.07-0.267l0.069-0.253
		l0.065-0.24l0.07-0.252l0.067-0.24l0.065-0.228l0.069-0.237l0.067-0.226l0.07-0.237l0.068-0.226l0.065-0.21l0.07-0.224l0.067-0.21
		l0.072-0.22l0.069-0.209l0.064-0.196l0.071-0.204l0.068-0.194l0.065-0.182l0.069-0.189l0.066-0.179l0.07-0.188l0.07-0.175
		l0.065-0.165l0.068-0.171l0.068-0.161l0.065-0.151l0.069-0.154l0.067-0.147l0.07-0.15l0.067-0.14l0.066-0.133l0.069-0.136
		l0.067-0.127l0.069-0.13l0.07-0.12l0.067-0.112l0.069-0.114l0.068-0.105l0.065-0.098l0.069-0.099l0.067-0.091l0.069-0.092
		l0.069-0.085l0.066-0.076l0.069-0.075l0.068-0.07l0.071-0.068l0.068-0.061l0.067-0.055l0.07-0.054l0.067-0.046l0.066-0.039
		l0.068-0.04l0.067-0.032l0.071-0.029l0.069-0.022l0.065-0.02l0.034-0.007l0.036-0.008l0.035-0.004l0.032-0.004l0.016-0.002h0.017
		l0.018-0.002h0.01l0.008-0.002H74.1l0.018,0.002l0.014,0.002l0.037,0.002l0.035,0.004l0.031,0.004l0.068,0.015l0.065,0.02
		l0.071,0.024l0.067,0.027l0.065,0.032l0.069,0.038l0.066,0.041l0.07,0.05l0.068,0.05l0.066,0.055l0.07,0.063l0.066,0.064
		l0.072,0.073l0.069,0.074l0.066,0.076l0.07,0.088l0.067,0.089l0.066,0.088l0.068,0.1l0.067,0.102l0.071,0.109l0.069,0.113
		l0.065,0.109l0.07,0.125l0.067,0.122l0.064,0.123l0.07,0.133l0.066,0.135l0.071,0.146l0.067,0.146l0.064,0.145l0.07,0.156
		l0.067,0.157l0.071,0.17l0.068,0.167l0.066,0.167l0.07,0.179l0.067,0.178l0.066,0.175l0.069,0.19l0.066,0.186l0.071,0.202
		l0.069,0.199l0.065,0.194l0.07,0.213l0.067,0.206l0.141,0.444l0.066,0.215l0.069,0.232l0.068,0.228l0.065,0.221l0.07,0.24
		l0.066,0.235l0.072,0.252l0.134,0.486l0.07,0.258l0.067,0.253l0.064,0.246l0.07,0.266l0.065,0.257l0.071,0.278l0.069,0.271
		l0.064,0.264l0.07,0.28l0.067,0.275l0.07,0.294l0.069,0.288l0.066,0.278l0.071,0.3l0.067,0.289l0.065,0.283l0.069,0.302
		l0.067,0.295l0.07,0.313l0.069,0.306l0.065,0.296l0.07,0.317l0.067,0.31l0.064,0.296l0.069,0.319l0.066,0.31l0.071,0.332
		l0.068,0.319l0.064,0.31l0.069,0.333l0.067,0.32l0.071,0.343l0.068,0.333l0.067,0.322l0.069,0.343l0.068,0.332l0.064,0.32
		l0.069,0.343l0.067,0.333l0.07,0.354l0.068,0.341l0.066,0.331l0.136,0.693l0.072,0.362l0.069,0.352l0.067,0.337l0.069,0.361
		l0.068,0.349l0.065,0.334l0.069,0.358l0.067,0.345l0.07,0.37l0.069,0.354l0.065,0.342l0.069,0.363l0.068,0.353l0.064,0.338
		l0.069,0.359l0.067,0.349l0.07,0.368l0.068,0.356l0.065,0.342l0.069,0.366l0.067,0.352l0.071,0.371l0.069,0.36l0.066,0.346
		l0.069,0.368l0.068,0.354l0.065,0.339l0.069,0.362l0.067,0.35l0.071,0.368l0.067,0.354l0.067,0.344l0.069,0.363l0.067,0.35
		l0.072,0.369l0.068,0.357l0.067,0.341l0.07,0.363l0.067,0.35l0.065,0.336l0.069,0.356l0.066,0.341l0.072,0.361l0.068,0.35
		l0.066,0.333l0.07,0.356l0.068,0.339l0.064,0.327l0.069,0.346l0.066,0.332l0.072,0.354l0.067,0.337l0.065,0.324l0.07,0.345
		l0.067,0.328l0.071,0.349l0.069,0.335l0.066,0.321l0.071,0.34l0.067,0.324l0.066,0.312l0.068,0.332l0.067,0.318l0.071,0.334
		l0.068,0.322l0.066,0.306l0.07,0.326l0.067,0.313l0.064,0.3l0.07,0.315l0.066,0.301l0.071,0.32l0.067,0.307l0.066,0.294l0.069,0.31
		l0.066,0.297l0.071,0.315l0.069,0.299l0.067,0.287l0.069,0.306l0.068,0.289l0.065,0.277l0.068,0.295l0.067,0.28l0.07,0.297
		l0.069,0.282l0.065,0.273l0.07,0.285l0.067,0.275l0.072,0.286l0.069,0.279l0.065,0.262l0.071,0.279l0.067,0.266l0.066,0.256
		l0.07,0.269l0.065,0.256l0.072,0.27l0.068,0.259l0.066,0.248l0.07,0.261l0.067,0.248l0.065,0.234l0.069,0.253l0.066,0.237
		l0.071,0.251l0.068,0.243l0.065,0.229l0.07,0.241l0.067,0.231l0.07,0.242l0.069,0.23l0.065,0.224l0.07,0.233l0.068,0.221
		l0.064,0.213l0.07,0.224l0.067,0.213l0.07,0.225l0.068,0.213l0.065,0.205l0.07,0.215l0.067,0.204l0.072,0.215l0.069,0.205
		l0.064,0.195l0.071,0.205l0.069,0.196l0.064,0.188l0.07,0.195l0.067,0.188l0.071,0.197l0.069,0.187l0.065,0.178l0.071,0.188
		l0.067,0.178l0.064,0.172l0.07,0.177l0.067,0.172l0.07,0.18l0.068,0.169l0.065,0.163l0.07,0.171l0.067,0.162l0.071,0.17
		l0.069,0.162l0.066,0.153l0.07,0.163l0.068,0.153l0.065,0.146l0.069,0.155l0.067,0.147l0.07,0.152l0.068,0.146l0.067,0.141
		l0.069,0.145l0.067,0.139l0.064,0.132l0.07,0.139l0.066,0.132l0.07,0.137l0.069,0.132l0.065,0.124l0.069,0.132l0.068,0.124
		l0.07,0.131l0.068,0.122l0.066,0.118l0.07,0.123l0.067,0.117l0.065,0.112l0.069,0.116l0.067,0.111l0.071,0.113l0.068,0.112
		l0.066,0.104l0.069,0.107l0.067,0.105l0.072,0.11l0.069,0.104l0.067,0.096l0.07,0.104l0.067,0.098l0.066,0.093l0.069,0.098
		l0.066,0.091l0.071,0.096l0.07,0.092l0.065,0.087l0.069,0.089l0.068,0.087l0.065,0.08l0.068,0.087l0.066,0.081l0.07,0.085
		l0.068,0.08l0.066,0.074l0.069,0.08l0.067,0.075l0.073,0.08l0.068,0.074l0.067,0.071l0.138,0.142l0.064,0.066l0.07,0.07
		l0.066,0.066l0.072,0.067l0.067,0.064l0.066,0.062l0.07,0.064l0.067,0.063l0.064,0.058l0.068,0.06l0.067,0.058l0.071,0.058
		l0.068,0.059l0.064,0.052l0.07,0.057l0.067,0.055 M96.087,110.575l0.072,0.054l0.067,0.052l0.067,0.05l0.07,0.051l0.067,0.05
		l0.065,0.046l0.069,0.047l0.066,0.046l0.071,0.048l0.067,0.045l0.066,0.043l0.07,0.044l0.067,0.041l0.072,0.044l0.068,0.041
		l0.067,0.039l0.069,0.041l0.068,0.038l0.065,0.037l0.069,0.037l0.067,0.037l0.071,0.037l0.068,0.034l0.066,0.034l0.071,0.035
		l0.067,0.033l0.065,0.03l0.068,0.031l0.066,0.031l0.071,0.03l0.069,0.032l0.064,0.028l0.07,0.028l0.067,0.03l0.071,0.028
		l0.068,0.026L98.608,112l0.071,0.026l0.067,0.025l0.065,0.024l0.069,0.025l0.067,0.024l0.071,0.024l0.068,0.022l0.065,0.021
		l0.07,0.023l0.067,0.022l0.072,0.023l0.069,0.02l0.064,0.019l0.071,0.022l0.069,0.018l0.064,0.019l0.07,0.021l0.066,0.017
		l0.071,0.019l0.068,0.017l0.066,0.02l0.07,0.016l0.068,0.017l0.063,0.015l0.07,0.016l0.066,0.016l0.072,0.016l0.068,0.015
		l0.064,0.013l0.07,0.015l0.067,0.015l0.07,0.012l0.069,0.015l0.065,0.012l0.071,0.013l0.068,0.013l0.065,0.012l0.069,0.013
		l0.067,0.011l0.071,0.013l0.069,0.01l0.065,0.011l0.07,0.01l0.067,0.011l0.065,0.01l0.069,0.009l0.067,0.008l0.07,0.013
		l0.068,0.009l0.065,0.007l0.069,0.009l0.067,0.009l0.071,0.009l0.068,0.008l0.066,0.009l0.069,0.007l0.068,0.007l0.065,0.009
		l0.069,0.006l0.066,0.007l0.07,0.008l0.069,0.006l0.066,0.006l0.07,0.007l0.067,0.006l0.071,0.007l0.069,0.006l0.065,0.007
		l0.07,0.003l0.068,0.006l0.065,0.005l0.069,0.006l0.068,0.005l0.07,0.006l0.069,0.005l0.066,0.004l0.07,0.003l0.067,0.006
		l0.064,0.005l0.068,0.004l0.067,0.004l0.071,0.003l0.068,0.004l0.065,0.004l0.069,0.005l0.067,0.004l0.071,0.002l0.069,0.004
		l0.066,0.003l0.07,0.003l0.068,0.005l0.065,0.003l0.069,0.003l0.067,0.002l0.071,0.002l0.068,0.004l0.065,0.002l0.07,0.003
		l0.067,0.002l0.073,0.004l0.068,0.002l0.066,0.003l0.07,0.002l0.068,0.002l0.065,0.002l0.069,0.001l0.067,0.002l0.14,0.005
		l0.065,0.002l0.07,0.002l0.067,0.002h0.064"/>
</g>
<g>
	<path fill="#F67DA2" d="M178.37,211.421h5.828c1.647-5.385,4.814-15.838,12.798-15.838c4.562,0,5.575,2.851,5.575,4.117
		c0,1.268-1.14,2.534-2.598,2.534c-2.027,0-2.408-1.71-2.408-2.406c0-1.395,0.634-1.395,0.634-2.092
		c0-0.507-0.634-0.761-1.456-0.761c-5.196,0-7.097,11.215-7.666,14.445h6.842l-0.38,2.027h-6.905l-4.563,20.273
		c-1.773,7.729-5.32,17.929-12.732,17.929c-1.965,0-4.563-0.822-4.942-3.737c0-0.19,0-2.598,2.281-2.725h0.127
		c0.887,0,2.407,0.824,2.407,2.345c0,1.076-0.57,1.076-0.57,1.773c0,0.508,0.443,1.014,1.204,1.014
		c4.055,0,5.702-7.729,6.208-10.264l5.574-26.608h-5.701L178.37,211.421z"/>
	<path fill="#F6D07D" d="M202.464,250.004c-6.273-10.391-6.273-19.64-6.273-23.694c0-10.453,4.943-20.338,16.474-30.157l0.823,0.951
		c-3.042,3.168-6.272,6.589-9.313,15.204c-2.534,7.096-3.611,15.713-3.611,19.703c0,4.245,0,9.82,3.041,17.613L202.464,250.004z"/>
	<path fill="#7DF6A7" d="M236.097,232.011c-4.498,7.223-6.334,7.223-7.792,7.223c-1.837,0-2.787-0.887-3.611-4.245l-1.9-7.602
		c-3.041,4.181-5.702,7.602-7.856,9.946c-1.076,1.204-1.836,1.9-3.8,1.9c-2.091,0-3.105-1.203-3.105-2.725
		c0-1.013,0.761-2.154,2.154-2.154c1.395,0,2.534,1.204,3.675,1.204c1.076,0,2.724-2.153,8.427-10.453
		c0-0.57-2.154-8.996-2.219-9.313c-0.569-1.964-0.822-2.851-2.533-2.851c-0.57,0-1.457,0.19-3.485,0.696l-0.253-0.949
		c1.711-0.57,5.893-2.091,7.919-2.091c1.395,0,2.345,0,3.484,5.575l0.697,3.484c3.294-5.195,6.272-9.06,9.567-9.06
		c1.203,0,2.596,0.761,2.596,2.281c0,1.14-0.632,2.344-2.152,2.344c-1.521,0-1.965-1.077-3.358-1.077
		c-1.838,0-6.146,7.666-6.146,7.666c0,1.14,2.154,9.756,2.534,11.341c0.253,1.014,0.696,2.597,1.964,2.597
		c1.33,0,2.598-2.344,4.308-4.245L236.097,232.011z"/>
	<path fill="#F6D07D" d="M234.139,248.99c2.788-2.915,6.461-6.779,9.312-15.079c2.599-7.729,3.611-15.332,3.611-20.906
		c0-6.778-1.457-13.051-3.104-16.535l1.203-0.317c4.563,7.413,6.272,15.522,6.272,23.759c0,11.974-7.096,22.49-16.471,30.029
		L234.139,248.99z"/>
</g>
</svg>
